<svg width="608" height="103" viewBox="0 0 608 103" fill="none" xmlns="http://www.w3.org/2000/svg">
<g clip-path="url(#clip0_2_3)">
<rect width="188" height="103" rx="7" fill="#227C9D"/>
<path d="M40.5164 29.6562V78H29.7254V29.6562H40.5164ZM61.2285 29.6562H70.1934L81.8144 64.2207L93.4023 29.6562H102.367L85.4336 78H78.1621L61.2285 29.6562ZM56.0488 29.6562H65.1797L66.873 65.4824V78H56.0488V29.6562ZM98.416 29.6562H107.58V78H96.7227V65.4824L98.416 29.6562ZM150.206 61.7969H160.964C160.787 65.1172 159.879 68.0501 158.241 70.5957C156.626 73.1191 154.379 75.1003 151.501 76.5391C148.624 77.9557 145.204 78.6641 141.241 78.6641C138.076 78.6641 135.243 78.1217 132.741 77.0371C130.24 75.9525 128.115 74.403 126.366 72.3887C124.64 70.3522 123.312 67.9062 122.382 65.0508C121.474 62.1732 121.021 58.9303 121.021 55.3223V52.3672C121.021 48.7591 121.497 45.5163 122.448 42.6387C123.4 39.7611 124.762 37.304 126.532 35.2676C128.303 33.2311 130.428 31.6706 132.907 30.5859C135.387 29.5013 138.154 28.959 141.208 28.959C145.325 28.959 148.801 29.7005 151.634 31.1836C154.467 32.6667 156.659 34.7031 158.208 37.293C159.78 39.8828 160.721 42.8379 161.03 46.1582H150.239C150.151 44.2767 149.797 42.694 149.177 41.4102C148.557 40.1042 147.605 39.1191 146.321 38.4551C145.038 37.791 143.333 37.459 141.208 37.459C139.659 37.459 138.297 37.7467 137.124 38.3223C135.973 38.8978 135.01 39.7943 134.236 41.0117C133.483 42.2292 132.918 43.7786 132.542 45.6602C132.166 47.5195 131.978 49.7331 131.978 52.3008V55.3223C131.978 57.8678 132.144 60.0703 132.476 61.9297C132.808 63.7891 133.339 65.3275 134.07 66.5449C134.822 67.7624 135.785 68.6699 136.958 69.2676C138.131 69.8652 139.559 70.1641 141.241 70.1641C143.167 70.1641 144.772 69.8652 146.056 69.2676C147.34 68.6478 148.325 67.7181 149.011 66.4785C149.697 65.2389 150.096 63.6784 150.206 61.7969Z" fill="white"/>
<path d="M231.493 48.0762V74.5312H227.679V43.8105H231.165L231.493 48.0762ZM246.443 54.7207V55.1514C246.443 56.7646 246.252 58.2617 245.869 59.6426C245.486 61.0098 244.926 62.1992 244.188 63.2109C243.463 64.2227 242.567 65.0088 241.501 65.5693C240.435 66.1299 239.211 66.4102 237.83 66.4102C236.422 66.4102 235.178 66.1777 234.098 65.7129C233.018 65.248 232.102 64.5713 231.35 63.6826C230.598 62.7939 229.996 61.7275 229.545 60.4834C229.107 59.2393 228.807 57.8379 228.643 56.2793V53.9824C228.807 52.3418 229.114 50.8721 229.565 49.5732C230.017 48.2744 230.611 47.167 231.35 46.251C232.102 45.3213 233.011 44.6172 234.077 44.1387C235.144 43.6465 236.374 43.4004 237.769 43.4004C239.163 43.4004 240.4 43.6738 241.48 44.2207C242.561 44.7539 243.47 45.5195 244.208 46.5176C244.946 47.5156 245.5 48.7119 245.869 50.1064C246.252 51.4873 246.443 53.0254 246.443 54.7207ZM242.629 55.1514V54.7207C242.629 53.6133 242.513 52.5742 242.28 51.6035C242.048 50.6191 241.686 49.7578 241.193 49.0195C240.715 48.2676 240.1 47.6797 239.348 47.2559C238.596 46.8184 237.7 46.5996 236.661 46.5996C235.704 46.5996 234.87 46.7637 234.159 47.0918C233.462 47.4199 232.867 47.8643 232.375 48.4248C231.883 48.9717 231.479 49.6006 231.165 50.3115C230.864 51.0088 230.639 51.7334 230.488 52.4854V57.7969C230.762 58.7539 231.145 59.6562 231.637 60.5039C232.129 61.3379 232.785 62.0146 233.605 62.5342C234.426 63.04 235.458 63.293 236.702 63.293C237.728 63.293 238.609 63.0811 239.348 62.6572C240.1 62.2197 240.715 61.625 241.193 60.873C241.686 60.1211 242.048 59.2598 242.28 58.2891C242.513 57.3047 242.629 56.2588 242.629 55.1514ZM250.278 55.1514V54.6797C250.278 53.0801 250.511 51.5967 250.976 50.2295C251.44 48.8486 252.11 47.6523 252.985 46.6406C253.86 45.6152 254.92 44.8223 256.164 44.2617C257.408 43.6875 258.803 43.4004 260.348 43.4004C261.906 43.4004 263.308 43.6875 264.552 44.2617C265.81 44.8223 266.876 45.6152 267.751 46.6406C268.64 47.6523 269.316 48.8486 269.781 50.2295C270.246 51.5967 270.479 53.0801 270.479 54.6797V55.1514C270.479 56.751 270.246 58.2344 269.781 59.6016C269.316 60.9688 268.64 62.165 267.751 63.1904C266.876 64.2021 265.816 64.9951 264.572 65.5693C263.342 66.1299 261.947 66.4102 260.389 66.4102C258.83 66.4102 257.429 66.1299 256.185 65.5693C254.94 64.9951 253.874 64.2021 252.985 63.1904C252.11 62.165 251.44 60.9688 250.976 59.6016C250.511 58.2344 250.278 56.751 250.278 55.1514ZM254.072 54.6797V55.1514C254.072 56.2588 254.202 57.3047 254.462 58.2891C254.722 59.2598 255.111 60.1211 255.631 60.873C256.164 61.625 256.827 62.2197 257.62 62.6572C258.413 63.0811 259.336 63.293 260.389 63.293C261.428 63.293 262.337 63.0811 263.116 62.6572C263.909 62.2197 264.565 61.625 265.085 60.873C265.604 60.1211 265.994 59.2598 266.254 58.2891C266.527 57.3047 266.664 56.2588 266.664 55.1514V54.6797C266.664 53.5859 266.527 52.5537 266.254 51.583C265.994 50.5986 265.598 49.7305 265.064 48.9785C264.545 48.2129 263.889 47.6113 263.096 47.1738C262.316 46.7363 261.4 46.5176 260.348 46.5176C259.309 46.5176 258.393 46.7363 257.6 47.1738C256.82 47.6113 256.164 48.2129 255.631 48.9785C255.111 49.7305 254.722 50.5986 254.462 51.583C254.202 52.5537 254.072 53.5859 254.072 54.6797ZM280.855 62.0625L286.557 43.8105H289.059L288.566 47.4404L282.763 66H280.322L280.855 62.0625ZM277.021 43.8105L281.881 62.2676L282.229 66H279.666L273.227 43.8105H277.021ZM294.514 62.124L299.148 43.8105H302.922L296.482 66H293.939L294.514 62.124ZM289.612 43.8105L295.19 61.7549L295.826 66H293.406L287.438 47.3994L286.946 43.8105H289.612ZM316.026 66.4102C314.481 66.4102 313.08 66.1504 311.822 65.6309C310.578 65.0977 309.505 64.3525 308.603 63.3955C307.714 62.4385 307.03 61.3037 306.552 59.9912C306.073 58.6787 305.834 57.2432 305.834 55.6846V54.8232C305.834 53.0186 306.101 51.4121 306.634 50.0039C307.167 48.582 307.892 47.3789 308.808 46.3945C309.724 45.4102 310.763 44.665 311.925 44.1592C313.087 43.6533 314.29 43.4004 315.534 43.4004C317.12 43.4004 318.487 43.6738 319.636 44.2207C320.798 44.7676 321.748 45.5332 322.486 46.5176C323.225 47.4883 323.771 48.6367 324.127 49.9629C324.482 51.2754 324.66 52.7109 324.66 54.2695V55.9717H308.09V52.875H320.866V52.5879C320.812 51.6035 320.606 50.6465 320.251 49.7168C319.909 48.7871 319.362 48.0215 318.61 47.4199C317.858 46.8184 316.833 46.5176 315.534 46.5176C314.673 46.5176 313.88 46.7021 313.155 47.0713C312.431 47.4268 311.809 47.96 311.289 48.6709C310.77 49.3818 310.366 50.25 310.079 51.2754C309.792 52.3008 309.648 53.4834 309.648 54.8232V55.6846C309.648 56.7373 309.792 57.7285 310.079 58.6582C310.38 59.5742 310.811 60.3809 311.371 61.0781C311.945 61.7754 312.636 62.3223 313.442 62.7188C314.263 63.1152 315.192 63.3135 316.231 63.3135C317.571 63.3135 318.706 63.04 319.636 62.4932C320.565 61.9463 321.379 61.2148 322.076 60.2988L324.373 62.124C323.895 62.8486 323.286 63.5391 322.548 64.1953C321.81 64.8516 320.9 65.3848 319.82 65.7949C318.754 66.2051 317.489 66.4102 316.026 66.4102ZM332.884 47.2969V66H329.09V43.8105H332.781L332.884 47.2969ZM339.815 43.6875L339.795 47.2148C339.48 47.1465 339.18 47.1055 338.893 47.0918C338.619 47.0645 338.305 47.0508 337.949 47.0508C337.074 47.0508 336.302 47.1875 335.632 47.4609C334.962 47.7344 334.395 48.1172 333.93 48.6094C333.465 49.1016 333.096 49.6895 332.822 50.373C332.562 51.043 332.392 51.7812 332.31 52.5879L331.243 53.2031C331.243 51.8633 331.373 50.6055 331.633 49.4297C331.906 48.2539 332.323 47.2148 332.884 46.3125C333.444 45.3965 334.155 44.6855 335.017 44.1797C335.892 43.6602 336.931 43.4004 338.134 43.4004C338.407 43.4004 338.722 43.4346 339.077 43.5029C339.433 43.5576 339.679 43.6191 339.815 43.6875ZM352.12 66.4102C350.575 66.4102 349.174 66.1504 347.916 65.6309C346.672 65.0977 345.599 64.3525 344.696 63.3955C343.808 62.4385 343.124 61.3037 342.646 59.9912C342.167 58.6787 341.928 57.2432 341.928 55.6846V54.8232C341.928 53.0186 342.194 51.4121 342.728 50.0039C343.261 48.582 343.985 47.3789 344.901 46.3945C345.817 45.4102 346.856 44.665 348.019 44.1592C349.181 43.6533 350.384 43.4004 351.628 43.4004C353.214 43.4004 354.581 43.6738 355.729 44.2207C356.892 44.7676 357.842 45.5332 358.58 46.5176C359.318 47.4883 359.865 48.6367 360.221 49.9629C360.576 51.2754 360.754 52.7109 360.754 54.2695V55.9717H344.184V52.875H356.96V52.5879C356.905 51.6035 356.7 50.6465 356.345 49.7168C356.003 48.7871 355.456 48.0215 354.704 47.4199C353.952 46.8184 352.927 46.5176 351.628 46.5176C350.767 46.5176 349.974 46.7021 349.249 47.0713C348.524 47.4268 347.902 47.96 347.383 48.6709C346.863 49.3818 346.46 50.25 346.173 51.2754C345.886 52.3008 345.742 53.4834 345.742 54.8232V55.6846C345.742 56.7373 345.886 57.7285 346.173 58.6582C346.474 59.5742 346.904 60.3809 347.465 61.0781C348.039 61.7754 348.729 62.3223 349.536 62.7188C350.356 63.1152 351.286 63.3135 352.325 63.3135C353.665 63.3135 354.8 63.04 355.729 62.4932C356.659 61.9463 357.473 61.2148 358.17 60.2988L360.467 62.124C359.988 62.8486 359.38 63.5391 358.642 64.1953C357.903 64.8516 356.994 65.3848 355.914 65.7949C354.848 66.2051 353.583 66.4102 352.12 66.4102ZM379.17 61.6934V34.5H382.984V66H379.498L379.17 61.6934ZM364.24 55.1514V54.7207C364.24 53.0254 364.445 51.4873 364.855 50.1064C365.279 48.7119 365.874 47.5156 366.64 46.5176C367.419 45.5195 368.342 44.7539 369.408 44.2207C370.488 43.6738 371.691 43.4004 373.018 43.4004C374.412 43.4004 375.629 43.6465 376.668 44.1387C377.721 44.6172 378.609 45.3213 379.334 46.251C380.072 47.167 380.653 48.2744 381.077 49.5732C381.501 50.8721 381.795 52.3418 381.959 53.9824V55.8691C381.809 57.4961 381.515 58.959 381.077 60.2578C380.653 61.5566 380.072 62.6641 379.334 63.5801C378.609 64.4961 377.721 65.2002 376.668 65.6924C375.615 66.1709 374.385 66.4102 372.977 66.4102C371.678 66.4102 370.488 66.1299 369.408 65.5693C368.342 65.0088 367.419 64.2227 366.64 63.2109C365.874 62.1992 365.279 61.0098 364.855 59.6426C364.445 58.2617 364.24 56.7646 364.24 55.1514ZM368.055 54.7207V55.1514C368.055 56.2588 368.164 57.2979 368.383 58.2686C368.615 59.2393 368.971 60.0938 369.449 60.832C369.928 61.5703 370.536 62.1514 371.274 62.5752C372.013 62.9854 372.895 63.1904 373.92 63.1904C375.178 63.1904 376.21 62.9238 377.017 62.3906C377.837 61.8574 378.493 61.1533 378.985 60.2783C379.478 59.4033 379.86 58.4531 380.134 57.4277V52.4854C379.97 51.7334 379.73 51.0088 379.416 50.3115C379.115 49.6006 378.719 48.9717 378.227 48.4248C377.748 47.8643 377.153 47.4199 376.442 47.0918C375.745 46.7637 374.918 46.5996 373.961 46.5996C372.922 46.5996 372.026 46.8184 371.274 47.2559C370.536 47.6797 369.928 48.2676 369.449 49.0195C368.971 49.7578 368.615 50.6191 368.383 51.6035C368.164 52.5742 368.055 53.6133 368.055 54.7207ZM399.288 34.5H403.103V61.6934L402.774 66H399.288V34.5ZM418.094 54.7207V55.1514C418.094 56.7646 417.902 58.2617 417.52 59.6426C417.137 61.0098 416.576 62.1992 415.838 63.2109C415.1 64.2227 414.197 65.0088 413.131 65.5693C412.064 66.1299 410.841 66.4102 409.46 66.4102C408.052 66.4102 406.814 66.1709 405.748 65.6924C404.695 65.2002 403.807 64.4961 403.082 63.5801C402.357 62.6641 401.776 61.5566 401.339 60.2578C400.915 58.959 400.621 57.4961 400.457 55.8691V53.9824C400.621 52.3418 400.915 50.8721 401.339 49.5732C401.776 48.2744 402.357 47.167 403.082 46.251C403.807 45.3213 404.695 44.6172 405.748 44.1387C406.801 43.6465 408.024 43.4004 409.419 43.4004C410.813 43.4004 412.051 43.6738 413.131 44.2207C414.211 44.7539 415.113 45.5195 415.838 46.5176C416.576 47.5156 417.137 48.7119 417.52 50.1064C417.902 51.4873 418.094 53.0254 418.094 54.7207ZM414.279 55.1514V54.7207C414.279 53.6133 414.177 52.5742 413.972 51.6035C413.767 50.6191 413.438 49.7578 412.987 49.0195C412.536 48.2676 411.941 47.6797 411.203 47.2559C410.465 46.8184 409.556 46.5996 408.476 46.5996C407.519 46.5996 406.685 46.7637 405.974 47.0918C405.276 47.4199 404.682 47.8643 404.189 48.4248C403.697 48.9717 403.294 49.6006 402.979 50.3115C402.679 51.0088 402.453 51.7334 402.303 52.4854V57.4277C402.521 58.3848 402.877 59.3076 403.369 60.1963C403.875 61.0713 404.545 61.7891 405.379 62.3496C406.227 62.9102 407.272 63.1904 408.517 63.1904C409.542 63.1904 410.417 62.9854 411.142 62.5752C411.88 62.1514 412.475 61.5703 412.926 60.832C413.391 60.0938 413.732 59.2393 413.951 58.2686C414.17 57.2979 414.279 56.2588 414.279 55.1514ZM428.881 63.7031L435.054 43.8105H439.114L430.214 69.4248C430.009 69.9717 429.735 70.5596 429.394 71.1885C429.065 71.8311 428.642 72.4395 428.122 73.0137C427.603 73.5879 426.974 74.0527 426.235 74.4082C425.511 74.7773 424.643 74.9619 423.631 74.9619C423.33 74.9619 422.947 74.9209 422.482 74.8389C422.018 74.7568 421.689 74.6885 421.498 74.6338L421.478 71.5576C421.587 71.5713 421.758 71.585 421.99 71.5986C422.236 71.626 422.407 71.6396 422.503 71.6396C423.364 71.6396 424.096 71.5234 424.697 71.291C425.299 71.0723 425.805 70.6963 426.215 70.1631C426.639 69.6436 427.001 68.9258 427.302 68.0098L428.881 63.7031ZM424.349 43.8105L430.111 61.0371L431.096 65.0361L428.368 66.4307L420.206 43.8105H424.349ZM454.782 36.1406H458.617L468.399 60.4834L478.161 36.1406H482.017L469.876 66H466.882L454.782 36.1406ZM453.531 36.1406H456.915L457.469 54.3516V66H453.531V36.1406ZM479.863 36.1406H483.247V66H479.31V54.3516L479.863 36.1406ZM502.709 62.2061V50.7832C502.709 49.9082 502.531 49.1494 502.176 48.5068C501.834 47.8506 501.314 47.3447 500.617 46.9893C499.92 46.6338 499.059 46.4561 498.033 46.4561C497.076 46.4561 496.235 46.6201 495.511 46.9482C494.8 47.2764 494.239 47.707 493.829 48.2402C493.433 48.7734 493.234 49.3477 493.234 49.9629H489.44C489.44 49.1699 489.646 48.3838 490.056 47.6045C490.466 46.8252 491.054 46.1211 491.819 45.4922C492.599 44.8496 493.528 44.3438 494.608 43.9746C495.702 43.5918 496.919 43.4004 498.259 43.4004C499.872 43.4004 501.294 43.6738 502.524 44.2207C503.769 44.7676 504.739 45.5947 505.437 46.7021C506.147 47.7959 506.503 49.1699 506.503 50.8242V61.1602C506.503 61.8984 506.564 62.6846 506.688 63.5186C506.824 64.3525 507.022 65.0703 507.282 65.6719V66H503.324C503.133 65.5625 502.982 64.9814 502.873 64.2568C502.764 63.5186 502.709 62.835 502.709 62.2061ZM503.365 52.5469L503.406 55.2129H499.571C498.491 55.2129 497.527 55.3018 496.68 55.4795C495.832 55.6436 495.121 55.8965 494.547 56.2383C493.973 56.5801 493.535 57.0107 493.234 57.5303C492.934 58.0361 492.783 58.6309 492.783 59.3145C492.783 60.0117 492.94 60.6475 493.255 61.2217C493.569 61.7959 494.041 62.2539 494.67 62.5957C495.312 62.9238 496.099 63.0879 497.028 63.0879C498.19 63.0879 499.216 62.8418 500.104 62.3496C500.993 61.8574 501.697 61.2559 502.217 60.5449C502.75 59.834 503.037 59.1436 503.078 58.4736L504.698 60.2988C504.603 60.873 504.343 61.5088 503.919 62.2061C503.495 62.9033 502.928 63.5732 502.217 64.2158C501.52 64.8447 500.686 65.3711 499.715 65.7949C498.758 66.2051 497.678 66.4102 496.475 66.4102C494.971 66.4102 493.651 66.1162 492.517 65.5283C491.396 64.9404 490.521 64.1543 489.892 63.1699C489.276 62.1719 488.969 61.0576 488.969 59.8271C488.969 58.6377 489.201 57.5918 489.666 56.6895C490.131 55.7734 490.801 55.0146 491.676 54.4131C492.551 53.7979 493.604 53.333 494.834 53.0186C496.064 52.7041 497.438 52.5469 498.956 52.5469H503.365ZM516.265 47.2969V66H512.471V43.8105H516.162L516.265 47.2969ZM523.196 43.6875L523.176 47.2148C522.861 47.1465 522.561 47.1055 522.273 47.0918C522 47.0645 521.686 47.0508 521.33 47.0508C520.455 47.0508 519.683 47.1875 519.013 47.4609C518.343 47.7344 517.775 48.1172 517.311 48.6094C516.846 49.1016 516.477 49.6895 516.203 50.373C515.943 51.043 515.772 51.7812 515.69 52.5879L514.624 53.2031C514.624 51.8633 514.754 50.6055 515.014 49.4297C515.287 48.2539 515.704 47.2148 516.265 46.3125C516.825 45.3965 517.536 44.6855 518.397 44.1797C519.272 43.6602 520.312 43.4004 521.515 43.4004C521.788 43.4004 522.103 43.4346 522.458 43.5029C522.813 43.5576 523.06 43.6191 523.196 43.6875ZM530.825 34.5V66H527.011V34.5H530.825ZM535.911 55.1514V54.6797C535.911 53.0801 536.144 51.5967 536.608 50.2295C537.073 48.8486 537.743 47.6523 538.618 46.6406C539.493 45.6152 540.553 44.8223 541.797 44.2617C543.041 43.6875 544.436 43.4004 545.98 43.4004C547.539 43.4004 548.94 43.6875 550.185 44.2617C551.442 44.8223 552.509 45.6152 553.384 46.6406C554.272 47.6523 554.949 48.8486 555.414 50.2295C555.879 51.5967 556.111 53.0801 556.111 54.6797V55.1514C556.111 56.751 555.879 58.2344 555.414 59.6016C554.949 60.9688 554.272 62.165 553.384 63.1904C552.509 64.2021 551.449 64.9951 550.205 65.5693C548.975 66.1299 547.58 66.4102 546.021 66.4102C544.463 66.4102 543.062 66.1299 541.817 65.5693C540.573 64.9951 539.507 64.2021 538.618 63.1904C537.743 62.165 537.073 60.9688 536.608 59.6016C536.144 58.2344 535.911 56.751 535.911 55.1514ZM539.705 54.6797V55.1514C539.705 56.2588 539.835 57.3047 540.095 58.2891C540.354 59.2598 540.744 60.1211 541.264 60.873C541.797 61.625 542.46 62.2197 543.253 62.6572C544.046 63.0811 544.969 63.293 546.021 63.293C547.061 63.293 547.97 63.0811 548.749 62.6572C549.542 62.2197 550.198 61.625 550.718 60.873C551.237 60.1211 551.627 59.2598 551.887 58.2891C552.16 57.3047 552.297 56.2588 552.297 55.1514V54.6797C552.297 53.5859 552.16 52.5537 551.887 51.583C551.627 50.5986 551.23 49.7305 550.697 48.9785C550.178 48.2129 549.521 47.6113 548.729 47.1738C547.949 46.7363 547.033 46.5176 545.98 46.5176C544.941 46.5176 544.025 46.7363 543.232 47.1738C542.453 47.6113 541.797 48.2129 541.264 48.9785C540.744 49.7305 540.354 50.5986 540.095 51.583C539.835 52.5537 539.705 53.5859 539.705 54.6797ZM564.663 48.5479V66H560.869V43.8105H564.458L564.663 48.5479ZM563.761 54.0645L562.182 54.0029C562.195 52.4854 562.421 51.084 562.858 49.7988C563.296 48.5 563.911 47.3721 564.704 46.415C565.497 45.458 566.44 44.7197 567.534 44.2002C568.642 43.667 569.865 43.4004 571.205 43.4004C572.299 43.4004 573.283 43.5508 574.158 43.8516C575.033 44.1387 575.778 44.6035 576.394 45.2461C577.022 45.8887 577.501 46.7227 577.829 47.748C578.157 48.7598 578.321 49.9971 578.321 51.46V66H574.507V51.4189C574.507 50.2568 574.336 49.3271 573.994 48.6299C573.652 47.9189 573.153 47.4062 572.497 47.0918C571.841 46.7637 571.034 46.5996 570.077 46.5996C569.134 46.5996 568.272 46.7979 567.493 47.1943C566.728 47.5908 566.064 48.1377 565.504 48.835C564.957 49.5322 564.526 50.332 564.212 51.2344C563.911 52.123 563.761 53.0664 563.761 54.0645Z" fill="#939393"/>
</g>
<defs>
<clipPath id="clip0_2_3">
<rect width="608" height="103" rx="7" fill="white"/>
</clipPath>
</defs>
</svg>
